<svg xmlns="http://www.w3.org/2000/svg" width="709.805" height="150.675" viewBox="0 0 709.805 150.675">
  <g id="Group_40" data-name="Group 40" transform="translate(297.183 -269.677)">
    <path id="Path_131" data-name="Path 131" d="M111.112-75.344c.68-3.4,2.04-4.352,4.488-4.488l2.992-.272V-90.44H89.216V-79.7l7.072.544-12.1,57.664h-.272L69.088-83.232H52.224L37.672-20.672H37.4L25.7-74.8c-.68-3.264.816-4.76,3.4-5.032l3.808-.272V-90.44H1.632V-79.7l6.8.544L26.52,0h18.9L60.112-61.608h.408L75.48,0h18.5Zm42.3,5.032c-21.76,0-33.592,16.864-33.592,37.944,0,19.312,8.568,34.272,31.552,34.272,12.512,0,21.488-5.3,23.664-6.936l-4.76-11.288a30.217,30.217,0,0,1-17.136,5.576c-11.832,0-16.32-7.888-17-17,23.12.816,39.576-3.944,39.576-23.392C175.712-63.92,167.144-70.312,153.408-70.312ZM161.16-50.32c0,8.16-7.752,11.152-19.584,11.152-1.768,0-3.536,0-5.44-.136.952-8.84,5.712-19.04,16.592-19.04C157.76-58.344,161.16-56.032,161.16-50.32ZM239.9-77.656c2.176.68,2.448,1.768,2.448,4.08v9.52l13.192-.952v-21.76c-7.48-3.672-17.816-5.3-26.384-5.3-21.352,0-42.568,11.832-42.568,47.192,0,31.144,15.776,46.512,43.112,46.512,10.2,0,20.128-1.9,26.792-5.44V-25.84L243.3-26.792V-17c0,2.312-.408,3.4-2.584,4.08a44.05,44.05,0,0,1-9.792,1.088c-19.72,0-27.2-13.736-27.2-34.68,0-20.4,9.112-32.232,26.52-32.232A41.043,41.043,0,0,1,239.9-77.656ZM438.192-14.28V-96.968H414.664v10.2l4.216.408c2.448.272,3.4,1.088,3.4,3.944v14.008a38.048,38.048,0,0,0-11.968-1.9c-20.672,0-31.96,16.184-31.96,38.352,0,17.952,6.392,33.728,26.928,33.728,7.072,0,14.144-2.312,18.768-9.112l.544.136L425,0h20.128V-9.792l-4.08-.408C438.6-10.472,438.192-11.288,438.192-14.28Zm-29.376,3.808c-11.288,0-14.008-10.88-14.008-22.984,0-13.464,4.488-24.616,16.728-24.616a24.562,24.562,0,0,1,10.744,2.448v32.912C422.28-15.64,417.248-10.472,408.816-10.472Zm79.016-59.84c-21.76,0-33.592,16.864-33.592,37.944,0,19.312,8.568,34.272,31.552,34.272,12.512,0,21.488-5.3,23.664-6.936L504.7-16.32a30.217,30.217,0,0,1-17.136,5.576c-11.832,0-16.32-7.888-17-17,23.12.816,39.576-3.944,39.576-23.392C510.136-63.92,501.568-70.312,487.832-70.312Zm7.752,19.992c0,8.16-7.752,11.152-19.584,11.152-1.768,0-3.536,0-5.44-.136.952-8.84,5.712-19.04,16.592-19.04C492.184-58.344,495.584-56.032,495.584-50.32Z" transform="translate(-97.514 387.198)" fill="#1150cb"/>
    <g id="Group_39" data-name="Group 39" transform="translate(-297.183 269.677)">
      <path id="Path_119" data-name="Path 119" d="M42.731-32.023v7.373H30.858q-5.764.067-8.445-3.05T19.732-38.39V-85.375a12.652,12.652,0,0,0-2.245-7.172,8.877,8.877,0,0,0-6.669-3.887v-7.1a9.357,9.357,0,0,0,6.4-3.619,11.569,11.569,0,0,0,2.513-7.44v-46.985q0-8.579,3.05-11.16a12.084,12.084,0,0,1,8.077-2.58H42.731v7.373H34.544q-3.82-.067-5.161,2.58t-1.341,8.077v45.443q0,8.579-8.043,11.864,8.043,3.284,8.043,11.864v45.376q0,5.429,1.307,8.077t5.194,2.647Z" transform="translate(-10.817 175.323)" fill="#e0077a"/>
      <path id="Path_118" data-name="Path 118" d="M-39.223-167.883v-7.44h12.2q6.1,0,8.613,3.217t2.513,10.523v47.052a11.987,11.987,0,0,0,2.547,7.44,9.241,9.241,0,0,0,6.367,3.619v7.1a8.962,8.962,0,0,0-6.367,3.586A12.13,12.13,0,0,0-15.9-85.308V-38.39q.067,7.373-2.513,10.557t-8.613,3.184h-12.2v-7.306h8.515a6.413,6.413,0,0,0,4.692-1.776q1.81-1.776,1.81-8.948V-88.056q0-8.579,8.043-11.864-8.043-3.351-8.043-11.864v-45.443q0-6.367-1.542-8.512t-4.96-2.145Z" transform="translate(180.174 175.323)" fill="#e0077a"/>
      <g id="light-bulb_2_" data-name="light-bulb (2)" transform="translate(31.914 22.605)">
        <g id="Group_46" data-name="Group 46">
          <g id="Group_45" data-name="Group 45">
            <path id="Path_123" data-name="Path 123" d="M180.859,164.9a1.817,1.817,0,0,0,1.817-1.817V137.639h5.452a9.087,9.087,0,1,0-9.087-9.087V134h-7.269v-5.452a9.087,9.087,0,1,0-9.087,9.087h5.452v25.442a1.817,1.817,0,1,0,3.634,0V137.639h7.269v25.442A1.817,1.817,0,0,0,180.859,164.9Zm1.817-36.346A5.452,5.452,0,1,1,188.128,134h-5.452ZM168.138,134h-5.452a5.452,5.452,0,1,1,5.452-5.452Z" transform="translate(-120.888 -94.024)" fill="#1150cb" stroke="#1150cb" stroke-width="1"/>
            <path id="Path_124" data-name="Path 124" d="M58.53,6.294l6.957,5.839a1.817,1.817,0,1,0,2.337-2.784L60.867,3.51A1.817,1.817,0,0,0,58.53,6.294Z" transform="translate(-45.554 -2.429)" fill="#1150cb" stroke="#1150cb" stroke-width="1"/>
            <path id="Path_125" data-name="Path 125" d="M25.89,80.731l-8.536-3.106a1.818,1.818,0,1,0-1.243,3.417l8.536,3.106a1.818,1.818,0,0,0,1.243-3.417Z" transform="translate(-11.738 -61.007)" fill="#1150cb" stroke="#1150cb" stroke-width="1"/>
            <path id="Path_126" data-name="Path 126" d="M406.171,12.545a1.808,1.808,0,0,0,1.165-.425l6.96-5.843a1.817,1.817,0,0,0-2.335-2.784L405,9.335a1.817,1.817,0,0,0,1.17,3.209Z" transform="translate(-318.239 -2.415)" fill="#1150cb" stroke="#1150cb" stroke-width="1"/>
            <path id="Path_127" data-name="Path 127" d="M10.9,162.15H1.817a1.817,1.817,0,0,0,0,3.634H10.9a1.817,1.817,0,0,0,0-3.634Z" transform="translate(0 -127.618)" fill="#1150cb" stroke="#1150cb" stroke-width="1"/>
            <path id="Path_128" data-name="Path 128" d="M451.976,78.687a1.815,1.815,0,0,0-2.328-1.085L441.11,80.71a1.818,1.818,0,0,0,.621,3.526,1.762,1.762,0,0,0,.62-.111l8.539-3.108A1.816,1.816,0,0,0,451.976,78.687Z" transform="translate(-346.227 -60.988)" fill="#1150cb" stroke="#1150cb" stroke-width="1"/>
            <path id="Path_129" data-name="Path 129" d="M121.679,0A36.387,36.387,0,0,0,85.333,36.346c0,15.338,6.015,26.78,18.934,36.008a2.4,2.4,0,0,0,.22.134,5.739,5.739,0,0,1,2.541,4.207,5.433,5.433,0,0,0-2.13,8.718,5.441,5.441,0,0,0,0,7.269,5.449,5.449,0,0,0,4.06,9.087,1.817,1.817,0,1,0,0-3.634,1.817,1.817,0,1,1,0-3.634h18.173a1.817,1.817,0,0,0,0-3.634H108.958a1.817,1.817,0,1,1,0-3.634h18.173a1.817,1.817,0,0,0,0-3.634H108.958a1.817,1.817,0,1,1,0-3.634h18.173a1.817,1.817,0,0,0,0-3.634H110.652A9.447,9.447,0,0,0,106.3,69.34C94.312,60.75,88.968,50.571,88.968,36.347a32.711,32.711,0,1,1,65.423,0c0,14.224-5.345,24.4-17.331,32.993-.836.482-4.476,2.926-4.476,8.8a1.817,1.817,0,0,0,1.817,1.817,1.817,1.817,0,1,1,0,3.634,1.817,1.817,0,0,0,0,3.634,1.817,1.817,0,1,1,0,3.634,1.817,1.817,0,0,0,0,3.634,1.819,1.819,0,0,1,1.817,1.817,1.778,1.778,0,0,1-1.817,1.817H116.227a1.818,1.818,0,0,0-1.817,1.817v3.634a5.459,5.459,0,0,0,5.452,5.452H123.5a5.459,5.459,0,0,0,5.452-5.452v-1.817H134.4a5.449,5.449,0,0,0,4.06-9.087,5.441,5.441,0,0,0,0-7.269,5.433,5.433,0,0,0-2.132-8.718,5.751,5.751,0,0,1,2.519-4.2,1.714,1.714,0,0,0,.243-.145c12.917-9.228,18.934-20.67,18.934-36.008A36.387,36.387,0,0,0,121.679,0Zm3.635,103.586A1.819,1.819,0,0,1,123.5,105.4h-3.635a1.82,1.82,0,0,1-1.817-1.817v-1.817h7.269Z" transform="translate(-67.16)" fill="#1150cb" stroke="#1150cb" stroke-width="1"/>
            <path id="Path_130" data-name="Path 130" d="M463.171,162.133h-9.087a1.817,1.817,0,0,0,0,3.634h9.087a1.817,1.817,0,1,0,0-3.634Z" transform="translate(-355.95 -127.604)" fill="#1150cb" stroke="#1150cb" stroke-width="1"/>
          </g>
        </g>
      </g>
    </g>
    <g id="Group_22" data-name="Group 22" transform="translate(185.674 330.463)">
      <g id="Group_21" data-name="Group 21" transform="translate(0.001 0.001)">
        <path id="Path_51" data-name="Path 51" d="M1215.906,807.822l-36.26-21.84V772.239l36.26-21.878v16.445l-22.038,12.332,22.038,12.337Z" transform="translate(-1179.646 -750.361)" fill="#1150cb"/>
        <path id="Path_52" data-name="Path 52" d="M1205.513,791.475l22.038-12.337-22.038-12.332V750.361l36.26,21.878v13.743l-36.26,21.84Z" transform="translate(-1162.366 -750.361)" fill="#1150cb"/>
      </g>
      <path id="Path_53" data-name="Path 53" d="M1205.514,750.361l36.26,21.878v13.744l-14.223-6.845-22.037-12.331Z" transform="translate(-1162.365 -750.361)" fill="#e0077a"/>
      <path id="Path_54" data-name="Path 54" d="M1215.906,782.713v16.347l-36.26-21.84V763.477l14.224,6.9Z" transform="translate(-1179.646 -741.598)" fill="#e0077a"/>
    </g>
  </g>
</svg>
